<svg width="206" height="60" viewBox="0 0 206 60" fill="none" xmlns="http://www.w3.org/2000/svg">
<rect width="206" height="60" rx="10" fill="#FE0000"/>
<path d="M29.4012 42V18.555H38.5391C45.4758 18.555 50.7118 23.4908 50.7118 30.2608C50.7118 37.0309 45.4758 42 38.6058 42H29.4012ZM38.4724 22.5904H33.9368V37.9647H38.4724C42.9746 37.9647 46.0428 34.9298 46.0428 30.2275C46.0428 25.5919 42.9412 22.5904 38.4724 22.5904ZM61.4194 42.3335C56.5503 42.3335 52.7818 38.665 52.7818 33.896C52.7818 29.1936 56.517 25.5252 61.3861 25.5252C66.2885 25.5252 70.0237 29.1603 70.0237 33.896C70.0237 38.665 66.2885 42.3335 61.4194 42.3335ZM61.3861 38.2648C63.854 38.2648 65.5548 36.4639 65.5548 33.9293C65.5548 31.3947 63.8206 29.6272 61.3861 29.6272C58.9515 29.6272 57.2507 31.4281 57.2507 33.9293C57.2507 36.4639 58.9515 38.2648 61.3861 38.2648ZM76.7802 42L70.7438 25.892H75.146L78.4143 35.6969L81.7826 25.892H84.9509L88.3192 35.6969L91.5875 25.892H95.9897L89.9867 42H86.8185L83.3834 32.562L79.9151 42H76.7802ZM98.1092 42V25.892H102.478V27.4261C103.612 26.2589 105.246 25.5585 107.147 25.5585C110.715 25.5585 113.317 28.56 113.317 31.7949V42H108.948V32.7621C108.948 30.8611 107.614 29.5271 105.713 29.5271C103.845 29.5271 102.478 30.8611 102.478 32.7621V42H98.1092ZM116.836 42V17.888H121.205V42H116.836ZM132.646 42.3335C127.777 42.3335 124.009 38.665 124.009 33.896C124.009 29.1936 127.744 25.5252 132.613 25.5252C137.515 25.5252 141.25 29.1603 141.25 33.896C141.25 38.665 137.515 42.3335 132.646 42.3335ZM132.613 38.2648C135.081 38.2648 136.782 36.4639 136.782 33.9293C136.782 31.3947 135.047 29.6272 132.613 29.6272C130.178 29.6272 128.477 31.4281 128.477 33.9293C128.477 36.4639 130.178 38.2648 132.613 38.2648ZM150.8 42.3335C146.398 42.3335 143.063 38.7317 143.063 33.9627C143.063 29.1936 146.398 25.5585 150.766 25.5585C152.701 25.5585 154.335 26.2589 155.469 27.4261V25.892H159.804V42H155.469V40.4659C154.335 41.6332 152.701 42.3335 150.8 42.3335ZM151.6 38.2982C154.035 38.2982 155.702 36.4973 155.702 33.9293C155.702 31.3947 154.035 29.5938 151.6 29.5938C149.199 29.5938 147.531 31.3947 147.531 33.9293C147.531 36.4973 149.199 38.2982 151.6 38.2982ZM170.472 42.3335C166.004 42.3335 162.669 38.7317 162.669 33.9627C162.669 29.1936 166.004 25.5585 170.472 25.5585C172.273 25.5585 173.874 26.1922 175.041 27.2594V17.888H179.41V42H175.075V40.566C173.941 41.6665 172.307 42.3335 170.472 42.3335ZM171.206 38.2982C173.641 38.2982 175.308 36.4973 175.308 33.9293C175.308 31.3947 173.641 29.5938 171.206 29.5938C168.805 29.5938 167.137 31.3947 167.137 33.9293C167.137 36.4973 168.805 38.2982 171.206 38.2982Z" fill="white"/>
</svg>
