<svg width="57" height="56" viewBox="0 0 57 56" fill="none" xmlns="http://www.w3.org/2000/svg">
<circle cx="28.5312" cy="28.1904" r="26.7818" stroke="black" stroke-width="2.03406"/>
<path d="M35.75 28.75C35.75 32.6159 32.6159 35.75 28.75 35.75C24.884 35.75 21.75 32.6159 21.75 28.75C21.75 24.884 24.884 21.75 28.75 21.75C32.6159 21.75 35.75 24.884 35.75 28.75ZM35.75 28.75V31.375C35.75 33.7912 37.7088 35.75 40.125 35.75C42.5412 35.75 44.5 33.7912 44.5 31.375V28.75C44.5 20.0515 37.4486 13 28.75 13C20.0515 13 13 20.0515 13 28.75C13 37.4486 20.0515 44.5 28.75 44.5H35.75" stroke="black" stroke-width="2.5" stroke-linecap="round" stroke-linejoin="round"/>
</svg>
