<svg width="57" height="56" viewBox="0 0 57 56" fill="none" xmlns="http://www.w3.org/2000/svg">
<circle cx="28.3711" cy="27.9473" r="26.7818" stroke="black" stroke-width="2.03406"/>
<path fill-rule="evenodd" clip-rule="evenodd" d="M28.1161 27.2911C26.466 27.2911 25.1286 25.9537 25.1286 24.3036C25.1286 22.6535 26.466 21.3161 28.1161 21.3161C29.7662 21.3161 31.1036 22.6535 31.1036 24.3036C31.1036 25.9537 29.7662 27.2911 28.1161 27.2911ZM28.1161 19.3244C25.3666 19.3244 23.1369 21.5531 23.1369 24.3036C23.1369 27.0541 25.3666 29.2828 28.1161 29.2828C30.8656 29.2828 33.0953 27.0541 33.0953 24.3036C33.0953 21.5531 30.8656 19.3244 28.1161 19.3244ZM28.1161 41.2329C26.46 41.2419 18.1577 28.4672 18.1577 24.3036C18.1577 18.8046 22.6161 14.3452 28.1161 14.3452C33.6161 14.3452 38.0745 18.8046 38.0745 24.3036C38.0745 28.4115 29.7463 41.2419 28.1161 41.2329ZM28.1161 12.3535C21.5167 12.3535 16.166 17.7042 16.166 24.3036C16.166 29.3008 26.1294 44.2314 28.1161 44.2205C30.0719 44.2314 40.0662 29.233 40.0662 24.3036C40.0662 17.7042 34.7156 12.3535 28.1161 12.3535Z" fill="black"/>
</svg>
