<svg width="56" height="56" viewBox="0 0 56 56" fill="none" xmlns="http://www.w3.org/2000/svg">
<circle cx="27.9141" cy="28.0684" r="26.7818" stroke="black" stroke-width="2.03406"/>
<path d="M21.8101 26.7975H34.0144M23.8441 32.1363H32.2346M35.54 15.7803C33.3958 14.54 30.9064 13.8301 28.2513 13.8301C20.2004 13.8301 13.6738 20.3566 13.6738 28.4075C13.6738 30.7395 14.2214 32.9434 15.1949 34.8981C15.4536 35.4175 15.5398 36.0112 15.3898 36.5717L14.5215 39.8168C14.1446 41.2254 15.4333 42.5141 16.842 42.1373L20.087 41.269C20.6476 41.119 21.2413 41.2052 21.7607 41.4638C23.7153 42.4374 25.9193 42.9849 28.2513 42.9849C36.3021 42.9849 42.8287 36.4583 42.8287 28.4075C42.8287 25.7524 42.1188 23.2629 40.8785 21.1188" stroke="black" stroke-width="2.18662" stroke-linecap="round"/>
</svg>
