<svg width="281" height="144" viewBox="0 0 281 144" fill="none" xmlns="http://www.w3.org/2000/svg">
<path opacity="0.1" d="M76.1846 26.974L87.1138 22.375L91.8016 31.9837L80.3166 36.6709L76.1846 26.974Z" fill="black"/>
<path d="M76.1846 26.974L87.1138 22.375L91.8016 31.9837L80.3166 36.6709L76.1846 26.974Z" fill="#FFB6B6"/>
<path d="M77.7383 23.3124L88.5202 35.7335C88.5202 35.7335 81.0198 59.4037 73.5193 61.513C66.0189 63.6222 52.19 73.934 52.19 73.934L34.8452 62.6848L43.2832 50.2637C43.2832 50.2637 63.675 22.375 69.066 22.375C74.4569 22.375 77.7383 23.3124 77.7383 23.3124Z" fill="#005CB3"/>
<path d="M63.1712 104.283H38.0729L36.4861 102.162L30.0076 93.5026L28.5168 91.5106C28.5168 91.5106 22.8915 81.1988 24.0635 71.8244C25.2354 62.4501 37.4236 60.3408 37.4236 60.3408H37.9252L52.8464 73.4509L51.9557 85.6516L56.681 93.5026L63.1712 104.283Z" fill="#2F2E41"/>
<path d="M96.0206 32.8158C101.903 32.8158 106.671 28.048 106.671 22.1667C106.671 16.2853 101.903 11.5176 96.0206 11.5176C90.1385 11.5176 85.3701 16.2853 85.3701 22.1667C85.3701 28.048 90.1385 32.8158 96.0206 32.8158Z" fill="#FFB6B6"/>
<path d="M78.2072 50.0301L79.3792 62.6855L87.3484 94.7927L80.4635 97.2055L68.8317 62.2168L67.2251 48.1553L78.2072 50.0301Z" fill="#FFB6B6"/>
<path d="M75.0372 72.4736L74.5187 96.6697C74.4685 99.0119 72.5551 100.884 70.212 100.884H25.6966C23.4089 100.884 21.5203 99.0965 21.3954 96.8125L20.0725 72.6164C19.9376 70.149 21.9022 68.0742 24.3737 68.0742H70.7306C73.1458 68.0742 75.089 70.0593 75.0372 72.4736Z" fill="#3F3D56"/>
<path d="M61.6826 51.9637L66.4876 26.3586C66.4876 26.3586 79.8477 24.4837 80.3165 28.9366C80.7853 33.3894 79.9815 55.1509 79.9815 55.1509L61.6826 51.9637Z" fill="#005CB3"/>
<path d="M91.7216 23.8402C91.7216 23.8402 98.3099 21.4891 101.089 20.2241C103.868 18.9591 109.389 27.7823 109.512 23.1225C109.635 18.4627 107.727 16.5085 107.727 16.5085C107.727 16.5085 107.251 6.31445 96.9791 7.58895C96.9791 7.58895 99.2384 2.48874 91.8222 1.70008C84.4059 0.91143 72.8681 18.8183 73.9014 21.4943C74.9347 24.1704 76.1734 26.3828 73.2418 29.2442C70.3102 32.1055 64.8208 48.254 68.9974 52.5995C73.174 56.9449 73.448 58.8306 70.5864 61.534C67.7248 64.2374 60.9607 70.1157 68.2743 71.1362C75.5878 72.1567 67.6051 71.3945 73.0575 66.5991C78.5099 61.8038 86.466 61.9997 83.4953 54.3059C80.5246 46.6122 85.6858 35.5872 85.04 33.9146C84.3942 32.2421 86.4869 21.6213 86.4869 21.6213C86.4869 21.6213 91.3574 20.9058 91.7216 23.8402Z" fill="#2F2E41"/>
<path d="M268.11 79.9188L267.232 86.9127L265.052 104.284H221.254C221.596 100.391 222.064 94.7865 222.563 88.7367C222.613 88.1325 222.664 87.5245 222.714 86.9127C223.966 71.7052 225.337 54.4961 225.337 54.4961L231.095 55.5686L242.266 57.6456L246.818 58.4916L259.008 60.7612C265.086 61.8903 269.267 70.6893 268.11 79.9188Z" fill="#F2F2F2"/>
<path d="M234.981 26.3545L240.367 35.7783L230.016 43.1136L225.6 31.53L234.981 26.3545Z" fill="#FFB6B6"/>
<path d="M228.125 35.27C235.494 35.27 241.468 29.297 241.468 21.929C241.468 14.5609 235.494 8.58789 228.125 8.58789C220.756 8.58789 214.782 14.5609 214.782 21.929C214.782 29.297 220.756 35.27 228.125 35.27Z" fill="#FFB6B6"/>
<path d="M227.167 24.9117C226.107 23.2995 226.523 22.4563 225.636 21.8638C225.636 21.8637 225.279 21.6253 222.725 21.4894C222.153 17.3737 221.439 16.8745 221.439 16.8745C220.616 16.2993 219.395 16.4862 218.635 16.838C217.029 17.5821 217.215 19.1894 216.133 19.497C214.639 19.9219 211.92 17.5266 211.652 14.7845C211.433 12.5476 212.875 10.3751 213.446 10.4901C214.013 10.604 215.37 8.87178 216.103 8.89849C216.603 8.91674 218.648 8.0282 219.198 8.09767C219.798 8.17355 221.779 9.20692 221.861 8.97082C222.435 7.3302 222.266 6.87499 222.753 6.40564C223.615 5.57396 225.026 6.15312 227.239 6.46405C231.792 7.10379 232.587 5.60267 234.92 6.62014C236.099 7.13411 237.085 8.52025 239.009 11.2715C241.701 15.1192 243.046 17.043 243.055 19.2868C243.064 21.5752 241.956 21.4299 241.469 24.8176C240.927 28.5886 242.078 30.313 240.82 31.5381C239.848 32.485 237.872 32.7098 236.834 31.8787C235.057 30.456 237.383 27.0228 235.416 24.5145C234.209 22.9748 231.78 22.2897 230.668 23.0508C229.41 23.9113 230.103 26.4372 229.219 26.6768C228.461 26.8819 227.351 25.1927 227.167 24.9117Z" fill="#2F2E41"/>
<path d="M258.248 77.4566C257.876 83.8192 256.398 85.8279 255.88 93.342C255.767 94.9917 255.699 96.9066 255.699 99.1903C255.699 99.7725 255.702 100.335 255.702 100.885C255.702 102.056 255.68 103.163 255.544 104.285C255.44 105.181 255.263 106.083 254.968 107.034H226.231C226.228 107.028 226.228 107.021 226.224 107.015C226.056 106.284 225.949 105.585 225.869 104.916C225.843 104.702 225.82 104.492 225.801 104.285C225.775 104.042 225.752 103.803 225.729 103.567C225.642 102.626 225.555 101.736 225.348 100.885C225.07 99.711 224.565 98.6048 223.529 97.5374C223.106 97.1007 222.682 96.7612 222.268 96.4636C222.187 96.4085 222.109 96.3535 222.028 96.2985C220.883 95.5125 219.8 94.9464 218.861 93.342C218.845 93.3194 218.832 93.2935 218.819 93.2709C218.658 92.9895 218.237 92.2519 217.933 91.2687C217.612 90.2465 217.418 88.9623 217.768 87.6491C218.599 84.5373 221.679 84.2268 224.196 81.0826C224.468 80.7431 224.736 80.3678 224.992 79.9505C226.13 78.1002 226.438 76.4701 226.8 74.5325C226.858 74.2186 226.91 73.9081 226.952 73.6074C226.985 73.3809 227.014 73.1577 227.036 72.9377C227.237 71.0907 227.14 69.4993 226.904 68.0761C226.134 63.4149 223.863 60.5296 225.467 56.3471C225.972 55.034 226.687 54.0473 227.408 53.2031C228.935 51.4142 230.504 50.253 230.233 47.9436C229.958 45.6146 228.191 45.2942 227.994 43.2596C227.894 42.2311 228.23 41.1475 228.861 40.0832V40.0801C230.88 36.6545 235.92 33.5007 239.123 33.601C239.715 33.6172 240.239 33.7497 240.675 34.0053C242.257 34.9368 241.597 36.9715 244.021 39.8245C245.822 41.9432 247.86 42.7907 248.634 43.1917C251.697 44.7898 254.188 49.5026 255.88 55.5288C255.893 55.5741 255.906 55.6193 255.919 55.6679C256.964 59.4428 257.702 63.7287 258.067 68.0761C258.222 69.9166 258.313 71.7669 258.332 73.5976C258.349 75.0597 258.316 76.3278 258.248 77.4566Z" fill="#005CB3"/>
<path d="M192.284 94.8067C189.308 96.4987 187.77 99.4052 188.847 101.298C189.925 103.191 193.209 103.354 196.185 101.661C197.383 101.001 198.406 100.063 199.167 98.9273L211.683 91.599L208.118 85.7998L196.159 93.64C194.792 93.7139 193.464 94.1139 192.284 94.8067Z" fill="#FFB6B6"/>
<path d="M234.659 41.0676C234.285 40.9194 231.004 39.6768 228.007 41.3174C224.566 43.202 224.034 47.5042 223.848 49.0131C223.417 52.4988 224.686 53.28 224.954 56.8089C225.455 63.4109 226.776 55.8792 224.666 58.8928C223.936 59.9359 216.476 76.1006 212.362 79.2668C204.36 85.4247 199.279 89.7614 199.279 89.7614L205.08 96.0617C205.08 96.0617 214.246 93.6198 222.348 88.3599C230.658 82.9645 234.813 80.2668 238.028 74.9894C238.305 74.5349 244.928 63.2877 241.371 50.8509C240.56 48.0141 239.073 42.8165 234.659 41.0676Z" fill="#005CB3"/>
<path d="M236.728 99.255L236.142 100.885L235.773 101.907L234.919 104.285L233.929 107.034H227.566L228.633 104.285L229.128 103.004L229.95 100.885L231.328 97.3271L236.728 99.255Z" fill="#005CB3"/>
<path d="M255.98 54.9723C255.964 55.1827 255.941 55.4155 255.918 55.6679C255.666 58.2362 255.07 62.8326 254.2 68.076C253.741 70.8416 253.204 73.7885 252.599 76.7158C251.299 83.033 249.681 89.2535 247.853 93.342C247.527 94.0796 247.19 94.7459 246.847 95.3346C246.585 95.7842 246.31 96.2273 246.022 96.664C245.09 98.097 244.045 99.4556 242.962 100.724C242.92 100.779 242.871 100.83 242.823 100.885C242.648 101.092 242.467 101.296 242.286 101.5C241.399 102.499 240.493 103.431 239.617 104.285C238.549 105.326 237.52 106.248 236.598 107.034H226.265L226.223 107.015L224.735 106.355C224.735 106.355 225.159 105.857 225.868 104.916C226.013 104.725 226.168 104.515 226.337 104.285C226.544 104.003 226.767 103.693 227.006 103.356C227.504 102.651 228.071 101.823 228.679 100.885C229.856 99.0705 231.199 96.8386 232.554 94.2542C232.71 93.9533 232.868 93.6493 233.027 93.3419C233.03 93.3323 233.037 93.3225 233.04 93.3129C233.308 92.7888 233.574 92.2487 233.839 91.6987C236.087 87.0214 236.731 83.1398 236.916 81.8816C237.174 80.1026 237.533 77.615 237.436 74.8785C237.371 73.0736 237.11 71.1651 236.485 69.2696V69.2664C236.356 68.8686 236.21 68.4707 236.045 68.076C235.751 67.3676 235.401 66.6689 234.987 65.98C233.159 62.9459 231.675 62.8197 230.494 59.5138C230.144 58.5338 229.352 56.3213 229.594 53.9858V53.9826C229.624 53.6947 229.672 53.4036 229.737 53.1124V53.1092C229.753 53.0283 229.776 52.9443 229.798 52.8635C229.983 52.1486 230.287 51.4401 230.749 50.7672C231.652 49.4606 232.884 48.6841 233.988 48.2217L233.991 48.2184C235.265 47.688 236.366 47.5747 236.579 47.5553C241.305 47.1349 244.971 51.107 246.973 53.2774C247.746 54.1151 248.455 54.8172 249.102 55.3896C254.139 59.8859 255.52 57.0134 255.879 55.5287C255.934 55.2991 255.964 55.1018 255.98 54.9723Z" fill="#005CB3"/>
<path d="M255.996 54.8037C255.996 54.8198 255.993 54.8748 255.98 54.9654C255.986 54.9168 255.99 54.8683 255.993 54.823C255.993 54.8133 255.993 54.8069 255.996 54.8037Z" fill="#005CB3"/>
<path d="M264.612 72.4755L264.094 96.6716C264.044 99.0139 262.13 100.886 259.787 100.886H215.272C212.984 100.886 211.095 99.0984 210.971 96.8145L209.648 72.6184C209.513 70.1509 211.477 68.0762 213.949 68.0762H260.306C262.721 68.0762 264.664 70.0612 264.612 72.4755Z" fill="#3F3D56"/>
<path d="M230.303 123.059H56.8874C55.2762 123.059 53.9629 124.369 53.9629 125.98C53.9629 127.594 55.2762 128.904 56.8874 128.904H230.303C231.914 128.904 233.225 127.594 233.225 125.98C233.225 124.369 231.914 123.059 230.303 123.059Z" fill="#E6E6E6"/>
<path opacity="0.1" d="M151.363 31.6631L161.203 45.578L144.038 46.0905L142.196 33.0138L151.363 31.6631Z" fill="black"/>
<path d="M188.304 89.1648L187.467 93.5051L185.39 104.286H143.671C143.997 101.869 144.443 98.3915 144.918 94.637C144.965 94.2621 145.014 93.8848 145.061 93.5051C146.254 84.0675 147.56 73.3877 147.56 73.3877L153.045 74.0533L163.686 75.3423L168.022 75.8672L179.634 77.2757C185.423 77.9765 189.405 83.437 188.304 89.1648Z" fill="#F2F2F2"/>
<path d="M102.834 60.4933C101.571 56.8513 98.6681 54.5507 96.3501 55.3545C94.0322 56.1583 93.1773 59.7619 94.4409 63.4049C94.9257 64.8671 95.7536 66.192 96.8555 67.2686L102.4 82.6322L109.555 79.8768L103.33 65.0236C103.528 63.4956 103.358 61.9421 102.834 60.4933Z" fill="#A0616A"/>
<path d="M151.363 31.6631L161.203 45.578L144.038 46.0905L142.196 33.0138L151.363 31.6631Z" fill="#A0616A"/>
<path d="M169.445 53.4034L169.431 67.5845L168.111 72.8224L165.397 83.5959L163.421 93.5046L161.949 100.887L161.424 103.523C161.028 103.788 160.634 104.041 160.241 104.285H125.957C124.009 103.116 122.919 102.206 122.919 102.206C122.919 102.206 123.458 101.7 124.074 100.887C125.115 99.5136 126.374 97.2637 125.603 95.1146C125.441 94.6647 125.399 94.1163 125.448 93.5046C125.762 89.4689 129.995 82.6444 129.995 82.6444L129.119 72.5154L128.734 68.0766L131.444 46.4334L140.278 41.2987L141.804 41.1511L156.858 40.3379L163.081 40.6964L163.364 40.7738L169.445 53.4034Z" fill="#FE0804"/>
<path d="M170.113 104.285H162.612L162.282 100.886L162.275 100.819L164.398 100.673L169.923 100.296L170.019 102.33L170.094 103.891L170.113 104.285Z" fill="#FE0804"/>
<path d="M171.959 56.8317L175.11 75.3156L172.539 93.5042L172.138 96.3353L171.43 101.334L171.212 102.872L171.219 103.038L171.273 104.285H162.366L162.038 100.887L162.01 100.582L161.34 93.6214L161.328 93.5042L159.905 78.7443L162.694 68.0763L162.901 67.2912V67.2888L164.114 49.0229L163.174 40.7219L163.165 40.6445C163.184 40.6563 163.2 40.668 163.219 40.6797C163.268 40.7102 163.317 40.7406 163.364 40.7734C168.84 44.2467 172.102 50.34 171.959 56.8317Z" fill="#FE0804"/>
<path d="M134.635 49.9758L131.21 46.4336C131.21 46.4336 123.878 49.7386 123.512 51.5722C123.147 53.4059 110.201 80.3367 110.201 80.3367L104.569 65.2959L97.2378 70.1901C97.2378 70.1901 103.12 93.5417 108.622 94.638C114.123 95.7343 132.562 66.999 132.562 66.999L134.635 49.9758Z" fill="#FE0804"/>
<path d="M273.708 93.3418H6.98316C3.20786 93.3418 0.137695 96.4147 0.137695 100.19C0.137695 103.964 3.20785 107.034 6.98316 107.034H273.708C277.484 107.034 280.557 103.965 280.557 100.19C280.557 96.4146 277.484 93.3418 273.708 93.3418Z" fill="#E6E6E6"/>
<path d="M169.301 74.8789L168.783 99.0749C168.733 101.417 166.819 103.29 164.476 103.29H119.961C117.673 103.29 115.784 101.502 115.66 99.2178L114.337 75.0217C114.202 72.5542 116.166 70.4795 118.638 70.4795H164.995C167.41 70.4795 169.353 72.4646 169.301 74.8789Z" fill="#3F3D56"/>
<path d="M146.101 36.7003C152.504 36.7003 157.695 31.5102 157.695 25.1079C157.695 18.7057 152.504 13.5156 146.101 13.5156C139.698 13.5156 134.507 18.7057 134.507 25.1079C134.507 31.5102 139.698 36.7003 146.101 36.7003Z" fill="#A0616A"/>
<path d="M147.026 9.5228C146.691 9.71861 146.242 9.42235 146.134 9.04914C146.026 8.67592 146.152 8.27967 146.276 7.91168L146.902 6.05913C147.345 4.74527 147.816 3.38549 148.777 2.38547C150.227 0.876092 152.532 0.492115 154.607 0.770293C157.271 1.12753 159.9 2.57008 161.139 4.95552C162.378 7.34096 161.85 10.6695 159.612 12.1578C162.802 15.814 163.914 19.8888 163.739 24.7379C163.563 29.587 158.278 34.0497 154.831 37.4657C154.062 36.9992 153.362 34.813 153.785 34.0187C154.209 33.2245 153.602 32.3044 154.126 31.5729C154.651 30.8413 155.089 32.0062 154.559 31.2788C154.225 30.8198 155.53 29.7638 155.033 29.4891C152.629 28.1603 151.829 25.164 150.319 22.8694C148.498 20.1018 145.381 18.2276 142.082 17.9166C140.265 17.7453 138.345 18.0556 136.856 19.1104C135.366 20.1653 134.402 22.0503 134.747 23.8423C133.853 22.9342 133.408 21.6033 133.575 20.3397C133.743 19.0762 134.521 17.9078 135.622 17.2648C134.952 15.0518 135.526 12.5062 137.079 10.7938C138.632 9.08129 144.934 9.37295 147.202 9.82365L147.026 9.5228Z" fill="#2F2E41"/>
<path d="M147.378 17.9834C150.382 18.3076 152.551 20.9092 154.382 23.3117C155.438 24.6965 156.543 26.2257 156.517 27.9666C156.49 29.7268 155.313 31.2364 154.751 32.9045C153.831 35.631 154.727 38.8749 156.916 40.743C154.753 41.1533 152.416 39.532 152.042 37.363C151.608 34.838 153.522 32.401 153.295 29.849C153.096 27.6006 151.323 25.8702 149.817 24.1891C148.31 22.5079 146.896 20.2771 147.589 18.1289L147.378 17.9834Z" fill="#2F2E41"/>
</svg>
