<svg width="56" height="56" viewBox="0 0 56 56" fill="none" xmlns="http://www.w3.org/2000/svg">
<circle cx="27.7988" cy="27.7988" r="26.7818" stroke="black" stroke-width="2.03406"/>
<path d="M14 37.7996C14 35.6514 14.8534 33.5912 16.3724 32.0722C17.8914 30.5532 19.9516 29.6998 22.0999 29.6998C24.2481 29.6998 26.3083 30.5532 27.8274 32.0722C29.3363 33.5812 30.1886 35.6244 30.1996 37.7574M32.0759 31.5814C33.078 31.212 34.1544 31.0902 35.2137 31.2263C36.2729 31.3622 37.2837 31.7521 38.1599 32.3627C39.0362 32.9732 39.752 33.7864 40.2465 34.733C40.7352 35.6686 40.9934 36.7071 41 37.7622M22.0999 27.8998C24.8336 27.8998 27.0498 25.6837 27.0498 22.9499C27.0498 20.2162 24.8336 18 22.0999 18C19.3661 18 17.1499 20.2162 17.1499 22.9499C17.1499 25.6837 19.3661 27.8998 22.0999 27.8998ZM34.3716 29.6998C36.6082 29.6998 38.4215 27.8866 38.4215 25.6499C38.4215 23.4132 36.6082 21.5999 34.3716 21.5999C32.1348 21.5999 30.3216 23.4132 30.3216 25.6499C30.3216 27.8866 32.1348 29.6998 34.3716 29.6998Z" stroke="black" stroke-width="2.23822" stroke-linecap="round" stroke-linejoin="round"/>
</svg>
