<svg width="56" height="56" viewBox="0 0 56 56" fill="none" xmlns="http://www.w3.org/2000/svg">
<circle cx="27.7988" cy="27.7988" r="26.7818" stroke="black" stroke-width="2.03406"/>
<path d="M26.3892 15.8936C24.6612 15.8936 23.2955 17.0059 22.3914 18.1303C21.487 19.255 20.854 20.6198 20.6204 21.6596C20.22 21.8872 19.6776 22.098 18.9611 22.3764C18.9186 22.3929 18.8756 22.4097 18.8319 22.4267C18.0242 22.7408 17.0666 23.1224 16.1678 23.6641C15.2597 24.2114 14.3717 24.9444 13.7153 25.9882C13.0538 27.0401 12.671 28.3388 12.671 29.9446C12.671 32.6518 13.1624 35.27 15.6799 37.0961C18.068 38.8285 22.0784 39.6807 28.5547 39.6807C34.4557 39.6807 38.3933 39.0558 40.8683 37.5902C42.1449 36.8342 43.0357 35.8541 43.5916 34.6509C44.1378 33.4686 44.3297 32.1385 44.3297 30.7191C44.3297 29.479 44.073 28.0219 43.4012 26.7703C42.7161 25.494 41.5686 24.3907 39.836 24.0655C39.8294 24.0643 39.8218 24.0618 39.8142 24.0577C39.8067 24.0538 39.8009 24.0494 39.797 24.0457C39.6293 22.9435 39.2437 22.0441 38.6652 21.3436C38.0837 20.6396 37.3561 20.1953 36.5994 19.9307C35.1824 19.4352 33.6141 19.5517 32.4583 19.7487C31.6353 18.4216 29.9073 15.8936 26.3892 15.8936Z" stroke="black" stroke-width="2.21276"/>
</svg>
