<svg width="57" height="56" viewBox="0 0 57 56" fill="none" xmlns="http://www.w3.org/2000/svg">
<path d="M43.9211 37.3627C43.9211 37.9127 43.7988 38.478 43.5391 39.028C43.2794 39.578 42.9432 40.0975 42.5002 40.5864C41.7515 41.4114 40.9265 42.0073 39.9945 42.3892C39.0778 42.7712 38.0847 42.9698 37.0152 42.9698C35.4568 42.9698 33.7915 42.6031 32.0345 41.8545C30.2775 41.1059 28.5205 40.0975 26.7787 38.8294C25.0217 37.546 23.3564 36.1251 21.7674 34.5514C20.1938 32.9625 18.7729 31.2972 17.5048 29.5554C16.2519 27.8137 15.2436 26.0719 14.5102 24.3455C13.7768 22.6038 13.4102 20.9384 13.4102 19.3495C13.4102 18.3105 13.5935 17.3174 13.9602 16.4007C14.3269 15.4688 14.9074 14.6132 15.7172 13.8493C16.695 12.8867 17.7645 12.4131 18.8951 12.4131C19.3229 12.4131 19.7507 12.5048 20.1326 12.6881C20.5299 12.8714 20.8813 13.1464 21.1563 13.5437L24.7009 18.5397C24.9759 18.9217 25.1745 19.2731 25.312 19.6092C25.4495 19.93 25.5259 20.2509 25.5259 20.5412C25.5259 20.9079 25.419 21.2745 25.2051 21.6259C25.0064 21.9773 24.7162 22.344 24.3495 22.7107L23.1883 23.9177C23.0203 24.0858 22.9439 24.2844 22.9439 24.5288C22.9439 24.6511 22.9591 24.758 22.9897 24.8802C23.0355 25.0025 23.0814 25.0941 23.1119 25.1858C23.3869 25.69 23.8606 26.347 24.5328 27.1414C25.2203 27.9359 25.9537 28.7457 26.7482 29.5554C27.5732 30.3652 28.3677 31.1138 29.1774 31.8013C29.9719 32.4736 30.6289 32.9319 31.1483 33.2069C31.2247 33.2375 31.3164 33.2833 31.4234 33.3292C31.5456 33.375 31.6678 33.3903 31.8053 33.3903C32.065 33.3903 32.2637 33.2986 32.4317 33.1306L33.5929 31.9847C33.9748 31.6027 34.3415 31.3124 34.6929 31.1291C35.0443 30.9152 35.3957 30.8082 35.7777 30.8082C36.068 30.8082 36.3735 30.8694 36.7097 31.0069C37.0458 31.1444 37.3972 31.343 37.7792 31.6027L42.8363 35.1931C43.2335 35.4681 43.5085 35.789 43.6766 36.171C43.8294 36.5529 43.9211 36.9349 43.9211 37.3627Z" stroke="black" stroke-width="2.0579" stroke-miterlimit="10"/>
<circle cx="28.3281" cy="28.0078" r="26.7818" stroke="black" stroke-width="2.03406"/>
</svg>
