<svg width="281" height="129" viewBox="0 0 281 129" fill="none" xmlns="http://www.w3.org/2000/svg">
<path d="M230.303 123.059H56.8874C55.2762 123.059 53.9629 124.369 53.9629 125.98C53.9629 127.594 55.2762 128.904 56.8874 128.904H230.303C231.914 128.904 233.225 127.594 233.225 125.98C233.225 124.369 231.914 123.059 230.303 123.059Z" fill="#E6E6E6"/>
<path opacity="0.1" d="M151.363 31.6631L161.203 45.578L144.038 46.0905L142.196 33.0138L151.363 31.6631Z" fill="black"/>
<path d="M188.304 89.1648L187.467 93.5051L185.39 104.286H143.671C143.997 101.869 144.443 98.3915 144.918 94.637C144.965 94.2621 145.014 93.8848 145.061 93.5051C146.254 84.0675 147.56 73.3877 147.56 73.3877L153.045 74.0533L163.686 75.3423L168.022 75.8672L179.634 77.2757C185.423 77.9765 189.405 83.437 188.304 89.1648Z" fill="#F2F2F2"/>
<path d="M102.834 60.4933C101.571 56.8513 98.6681 54.5507 96.3501 55.3545C94.0322 56.1583 93.1773 59.7619 94.4409 63.4049C94.9257 64.8671 95.7536 66.192 96.8555 67.2686L102.4 82.6322L109.555 79.8768L103.33 65.0236C103.528 63.4956 103.358 61.9421 102.834 60.4933Z" fill="#A0616A"/>
<path d="M151.363 31.6631L161.203 45.578L144.038 46.0905L142.196 33.0138L151.363 31.6631Z" fill="#A0616A"/>
<path d="M169.445 53.4034L169.431 67.5845L168.111 72.8224L165.397 83.5959L163.421 93.5046L161.949 100.887L161.424 103.523C161.028 103.788 160.634 104.041 160.241 104.285H125.957C124.009 103.116 122.919 102.206 122.919 102.206C122.919 102.206 123.458 101.7 124.074 100.887C125.115 99.5136 126.374 97.2637 125.603 95.1146C125.441 94.6647 125.399 94.1163 125.448 93.5046C125.762 89.4689 129.995 82.6444 129.995 82.6444L129.119 72.5154L128.734 68.0766L131.444 46.4334L140.278 41.2987L141.804 41.1511L156.858 40.3379L163.081 40.6964L163.364 40.7738L169.445 53.4034Z" fill="#FE0804"/>
<path d="M170.113 104.285H162.612L162.282 100.886L162.275 100.819L164.398 100.673L169.923 100.296L170.019 102.33L170.094 103.891L170.113 104.285Z" fill="#FE0804"/>
<path d="M171.959 56.8317L175.11 75.3156L172.539 93.5042L172.138 96.3353L171.43 101.334L171.212 102.872L171.219 103.038L171.273 104.285H162.366L162.038 100.887L162.01 100.582L161.34 93.6214L161.328 93.5042L159.905 78.7443L162.694 68.0763L162.901 67.2912V67.2888L164.114 49.0229L163.174 40.7219L163.165 40.6445C163.184 40.6563 163.2 40.668 163.219 40.6797C163.268 40.7102 163.317 40.7406 163.364 40.7734C168.84 44.2467 172.102 50.34 171.959 56.8317Z" fill="#FE0804"/>
<path d="M134.635 49.9758L131.21 46.4336C131.21 46.4336 123.878 49.7386 123.512 51.5722C123.147 53.4059 110.201 80.3367 110.201 80.3367L104.569 65.2959L97.2378 70.1901C97.2378 70.1901 103.12 93.5417 108.622 94.638C114.123 95.7343 132.562 66.999 132.562 66.999L134.635 49.9758Z" fill="#FE0804"/>
<path d="M273.708 93.3418H6.98316C3.20786 93.3418 0.137695 96.4147 0.137695 100.19C0.137695 103.964 3.20785 107.034 6.98316 107.034H273.708C277.484 107.034 280.557 103.965 280.557 100.19C280.557 96.4146 277.484 93.3418 273.708 93.3418Z" fill="#E6E6E6"/>
<path d="M169.301 74.8789L168.783 99.0749C168.733 101.417 166.819 103.29 164.476 103.29H119.961C117.673 103.29 115.784 101.502 115.66 99.2178L114.337 75.0217C114.202 72.5542 116.166 70.4795 118.638 70.4795H164.995C167.41 70.4795 169.353 72.4646 169.301 74.8789Z" fill="#3F3D56"/>
<path d="M146.101 36.7003C152.504 36.7003 157.695 31.5102 157.695 25.1079C157.695 18.7057 152.504 13.5156 146.101 13.5156C139.698 13.5156 134.507 18.7057 134.507 25.1079C134.507 31.5102 139.698 36.7003 146.101 36.7003Z" fill="#A0616A"/>
<path d="M147.026 9.5228C146.691 9.71861 146.242 9.42235 146.134 9.04914C146.026 8.67592 146.152 8.27967 146.276 7.91168L146.902 6.05913C147.345 4.74527 147.816 3.38549 148.777 2.38547C150.227 0.876092 152.532 0.492115 154.607 0.770293C157.271 1.12753 159.9 2.57008 161.139 4.95552C162.378 7.34096 161.85 10.6695 159.612 12.1578C162.802 15.814 163.914 19.8888 163.739 24.7379C163.563 29.587 158.278 34.0497 154.831 37.4657C154.062 36.9992 153.362 34.813 153.785 34.0187C154.209 33.2245 153.602 32.3044 154.126 31.5729C154.651 30.8413 155.089 32.0062 154.559 31.2788C154.225 30.8198 155.53 29.7638 155.033 29.4891C152.629 28.1603 151.829 25.164 150.319 22.8694C148.498 20.1018 145.381 18.2276 142.082 17.9166C140.265 17.7453 138.345 18.0556 136.856 19.1104C135.366 20.1653 134.402 22.0503 134.747 23.8423C133.853 22.9342 133.408 21.6033 133.575 20.3397C133.743 19.0762 134.521 17.9078 135.622 17.2648C134.952 15.0518 135.526 12.5062 137.079 10.7938C138.632 9.08129 144.934 9.37295 147.202 9.82365L147.026 9.5228Z" fill="#2F2E41"/>
<path d="M147.378 17.9834C150.382 18.3076 152.551 20.9092 154.382 23.3117C155.438 24.6965 156.543 26.2257 156.517 27.9666C156.49 29.7268 155.313 31.2364 154.751 32.9045C153.831 35.631 154.727 38.8749 156.916 40.743C154.753 41.1533 152.416 39.532 152.042 37.363C151.608 34.838 153.522 32.401 153.295 29.849C153.096 27.6006 151.323 25.8702 149.817 24.1891C148.31 22.5079 146.896 20.2771 147.589 18.1289L147.378 17.9834Z" fill="#2F2E41"/>
</svg>
