<svg width="118" height="54" viewBox="0 0 118 54" fill="none" xmlns="http://www.w3.org/2000/svg">
<path d="M0.808219 10.2031C0.808219 5.01445 5.01445 0.808219 10.2031 0.808219H107.797C112.986 0.808219 117.192 5.01445 117.192 10.2031V43.5395C117.192 48.7281 112.986 52.9344 107.797 52.9344H10.2031C5.01444 52.9344 0.808219 48.7281 0.808219 43.5395V10.2031Z" fill="#FE0000" stroke="white" stroke-width="1.61644"/>
<path d="M54.4812 34.0799C52.7285 34.0799 51.3677 33.3789 50.5016 32.2035L52.3986 30.389C52.8935 31.1107 53.5946 31.4819 54.4606 31.4819C55.7596 31.4819 56.5844 30.6571 56.5844 29.1725V19.3782H59.4092V29.0075C59.4092 32.0798 57.471 34.0799 54.4812 34.0799ZM66.5579 34.0799C63.5475 34.0799 61.2175 31.8118 61.2175 28.8632C61.2175 25.9558 63.5269 23.6877 66.5373 23.6877C69.5684 23.6877 71.8777 25.9352 71.8777 28.8632C71.8777 31.8118 69.5684 34.0799 66.5579 34.0799ZM66.5373 31.5643C68.0631 31.5643 69.1147 30.4509 69.1147 28.8838C69.1147 27.3167 68.0425 26.2239 66.5373 26.2239C65.0321 26.2239 63.9805 27.3373 63.9805 28.8838C63.9805 30.4509 65.0321 31.5643 66.5373 31.5643ZM74.9776 22.3062C74.0909 22.3062 73.4517 21.6258 73.4517 20.7597C73.4517 19.8937 74.0909 19.2133 74.9776 19.2133C75.8642 19.2133 76.5034 19.8937 76.5034 20.7597C76.5034 21.6258 75.8642 22.3062 74.9776 22.3062ZM73.6167 33.8737V23.9145H76.3385V33.8737H73.6167ZM78.7313 33.8737V23.9145H81.4324V24.863C82.1335 24.1413 83.1439 23.7083 84.3192 23.7083C86.5254 23.7083 88.1338 25.5641 88.1338 27.5642V33.8737H85.4326V28.1621C85.4326 26.9868 84.6078 26.162 83.4325 26.162C82.2778 26.162 81.4324 26.9868 81.4324 28.1621V33.8737H78.7313Z" fill="white"/>
<path d="M31.5205 19.8581V28.3104M26.8508 24.0843H36.1902M26.6173 33.593H36.4237C38.3852 33.593 39.3659 33.593 40.1151 33.2476C40.7741 32.9437 41.3099 32.4588 41.6456 31.8624C42.0274 31.1844 42.0274 30.2969 42.0274 28.5217V19.6468C42.0274 17.8717 42.0274 16.9841 41.6456 16.3061C41.3099 15.7097 40.7741 15.2248 40.1151 14.921C39.3659 14.5755 38.3852 14.5755 36.4237 14.5755H26.6173C24.6559 14.5755 23.6751 14.5755 22.926 14.921C22.267 15.2248 21.7312 15.7097 21.3954 16.3061C21.0137 16.9841 21.0137 17.8717 21.0137 19.6468V28.5217C21.0137 30.2969 21.0137 31.1844 21.3954 31.8624C21.7312 32.4588 22.267 32.9437 22.926 33.2476C23.6751 33.593 24.6559 33.593 26.6173 33.593Z" stroke="white" stroke-width="2.13388" stroke-linecap="round" stroke-linejoin="round"/>
</svg>
