<svg width="178" height="46" viewBox="0 0 178 46" fill="none" xmlns="http://www.w3.org/2000/svg">
<path d="M0 8.73315C0 3.90997 3.90997 0 8.73315 0H169.267C174.09 0 178 3.90997 178 8.73315V37.2668C178 42.09 174.09 46 169.267 46H8.73316C3.90997 46 0 42.09 0 37.2668V8.73315Z" fill="#FE0000"/>
<path d="M33.3649 32.2306C30.7359 32.2306 28.9833 31.3543 27.4843 29.5555L29.5598 27.48C30.5284 28.7484 31.7045 29.4633 33.5263 29.4633C35.1637 29.4633 36.2014 28.7714 36.2014 27.6414C36.2014 24.2053 28.5451 25.9349 28.5451 20.1927C28.5451 17.2639 30.8743 15.5343 34.0337 15.5343C36.2475 15.5343 38.0694 16.4337 39.2224 17.7712L37.1469 19.8468C36.2014 18.809 35.2559 18.3247 33.9875 18.3247C32.5347 18.3247 31.6584 18.9012 31.6584 19.939C31.6584 23.0523 39.3147 21.438 39.3147 27.3878C39.3147 30.4088 37.0547 32.2306 33.3649 32.2306ZM42.9891 19.0627C41.9975 19.0627 41.2826 18.3017 41.2826 17.3331C41.2826 16.3645 41.9975 15.6035 42.9891 15.6035C43.9808 15.6035 44.6957 16.3645 44.6957 17.3331C44.6957 18.3017 43.9808 19.0627 42.9891 19.0627ZM41.4671 32V20.8614H44.5112V32H41.4671ZM51.7074 31.7002C48.6863 31.7002 46.4494 29.3018 46.4494 26.1425C46.4494 23.0292 48.6863 20.6308 51.7074 20.6308C53.0218 20.6308 54.1288 21.069 54.8898 21.807V20.8614H57.8878V31.4235C57.8878 34.7443 55.3971 36.9351 51.8457 36.9351C49.4704 36.9351 47.6255 36.0588 46.5417 34.5137L48.4557 32.5996C49.2859 33.6373 50.3237 34.1678 51.8227 34.1678C53.6906 34.1678 54.8667 33.1761 54.8667 31.4696V30.5471C54.0827 31.2851 52.9988 31.7002 51.7074 31.7002ZM52.3069 28.9559C53.9674 28.9559 55.0512 27.8029 55.0512 26.1655C55.0512 24.5282 53.9674 23.3751 52.3069 23.3751C50.6465 23.3751 49.5396 24.5512 49.5396 26.1655C49.5396 27.7567 50.6465 28.9559 52.3069 28.9559ZM60.5421 32V20.8614H63.5632V21.9223C64.3472 21.1151 65.4772 20.6308 66.7917 20.6308C69.2593 20.6308 71.058 22.7063 71.058 24.9433V32H68.037V25.6121C68.037 24.2976 67.1146 23.3751 65.8001 23.3751C64.5087 23.3751 63.5632 24.2976 63.5632 25.6121V32H60.5421ZM82.7463 32.2306C79.7944 32.2306 77.6959 30.2012 77.6959 27.3186V20.8614H80.7399V27.2494C80.7399 28.6331 81.4779 29.4402 82.7463 29.4402C84.0146 29.4402 84.7526 28.6561 84.7526 27.2494V20.8614H87.7736V27.3186C87.7736 30.2473 85.7212 32.2306 82.7463 32.2306ZM90.1794 36.6584V20.8614H93.2004V21.8531C93.9845 21.0921 95.0914 20.6308 96.3598 20.6308C99.45 20.6308 101.756 23.1445 101.756 26.4423C101.756 29.74 99.45 32.2306 96.3598 32.2306C95.0683 32.2306 93.9614 31.7924 93.1773 31.0314V36.6584H90.1794ZM95.8294 29.4402C97.4898 29.4402 98.6659 28.1949 98.6659 26.4192C98.6659 24.6665 97.4898 23.4212 95.8524 23.4212C94.1689 23.4212 93.0159 24.6435 93.0159 26.4192C93.0159 28.1949 94.1689 29.4402 95.8294 29.4402ZM109.717 32V23.5135H107.134V20.8614H109.717V19.6623C109.717 17.0102 111.585 15.0731 114.421 15.0731C115.851 15.0731 116.866 15.6035 117.696 16.4568L115.782 18.3939C115.436 18.048 115.067 17.8635 114.467 17.8635C113.384 17.8635 112.738 18.4861 112.738 19.5931V20.8614H116.036V23.5135H112.738V32H109.717ZM117.497 32V20.8614H120.518V21.8531C121.187 21.069 122.132 20.6308 123.401 20.6308C124.484 20.6308 125.338 20.9768 126.03 21.7608L124.139 23.9286C123.77 23.5596 123.331 23.3751 122.709 23.3751C121.394 23.3751 120.518 24.1823 120.518 25.8427V32H117.497ZM132.103 32.2306C128.62 32.2306 126.038 29.7861 126.038 26.4192C126.038 23.1214 128.597 20.6078 131.895 20.6078C135.078 20.6078 137.384 22.96 137.384 26.1655C137.384 26.5576 137.338 26.9727 137.222 27.48L129.082 27.5031C129.451 28.8867 130.534 29.6939 132.08 29.6939C133.186 29.6939 134.155 29.3018 134.824 28.5408L136.6 30.3165C135.493 31.5849 133.901 32.2306 132.103 32.2306ZM131.895 23.1214C130.465 23.1445 129.451 23.9286 129.082 25.2431H134.478C134.178 23.8594 133.302 23.1214 131.895 23.1214ZM144.579 32.2306C141.097 32.2306 138.514 29.7861 138.514 26.4192C138.514 23.1214 141.074 20.6078 144.372 20.6078C147.554 20.6078 149.86 22.96 149.86 26.1655C149.86 26.5576 149.814 26.9727 149.699 27.48L141.558 27.5031C141.927 28.8867 143.011 29.6939 144.556 29.6939C145.663 29.6939 146.632 29.3018 147.3 28.5408L149.076 30.3165C147.969 31.5849 146.378 32.2306 144.579 32.2306ZM144.372 23.1214C142.942 23.1445 141.927 23.9286 141.558 25.2431H146.954C146.655 23.8594 145.778 23.1214 144.372 23.1214Z" fill="white"/>
</svg>
