<svg width="25" height="26" viewBox="0 0 25 26" fill="none" xmlns="http://www.w3.org/2000/svg">
<path d="M12.5205 8.1638V18.4394M7.85081 13.3016H17.1902M7.61732 24.8616H17.4237C19.3852 24.8616 20.3659 24.8616 21.1151 24.4416C21.7741 24.0722 22.3099 23.4827 22.6456 22.7577C23.0274 21.9333 23.0274 20.8544 23.0274 18.6963V7.90691C23.0274 5.74884 23.0274 4.6698 22.6456 3.84554C22.3099 3.12048 21.7741 2.531 21.1151 2.16157C20.3659 1.74158 19.3852 1.74158 17.4237 1.74158H7.61732C5.65586 1.74158 4.67513 1.74158 3.92595 2.16157C3.26695 2.531 2.73117 3.12048 2.3954 3.84554C2.01367 4.6698 2.01367 5.74884 2.01367 7.90691V18.6963C2.01367 20.8544 2.01367 21.9333 2.3954 22.7577C2.73117 23.4827 3.26695 24.0722 3.92595 24.4416C4.67513 24.8616 5.65586 24.8616 7.61732 24.8616Z" stroke="white" stroke-width="2.13388" stroke-linecap="round" stroke-linejoin="round"/>
</svg>
